<svg xmlns="http://www.w3.org/2000/svg" version="1.1" xmlns:xlink="http://www.w3.org/1999/xlink" xmlns:svgjs="http://svgjs.dev/svgjs" width="1440" height="560" preserveAspectRatio="none" viewBox="0 0 1440 560"><g mask="url(&quot;#SvgjsMask1003&quot;)" fill="none"><path d="M1019.83-22.41C854.3-21.74 708.56 106.19 371.05 109.87 33.54 113.55-104.77 346.83-277.73 350.67" stroke="rgba(63, 142, 247, 1)" stroke-width="2"></path><path d="M1186.64-15.85C1071.49-12.41 975.44 160.31 760.93 160.52 546.42 160.73 548.07 90.52 335.22 90.52 122.37 90.52 17.37 160.29-90.49 160.52" stroke="rgba(63, 142, 247, 1)" stroke-width="2"></path><path d="M1155.73-11.5C997.18 35.71 961.94 474.55 719.2 485.81 476.46 497.07 500.94 415.81 282.67 415.81 64.41 415.81-43.33 485.59-153.86 485.81" stroke="rgba(63, 142, 247, 1)" stroke-width="2"></path><path d="M1140.74-9.18C1019.94-7.41 911.4 137.87 680.45 137.94 449.49 138.01 450.3 67.94 220.15 67.94-9.99 67.94-123.74 137.74-240.14 137.94" stroke="rgba(63, 142, 247, 1)" stroke-width="2"></path><path d="M1038.98-36.26C891.95-28.71 808.48 215.81 514.26 231.03 220.04 246.25 136.73 492.16-10.46 499.83" stroke="rgba(63, 142, 247, 1)" stroke-width="2"></path></g><defs><mask id="SvgjsMask1003"><rect width="1440" height="560" fill="#ffffff"></rect></mask></defs></svg>